<svg xmlns="http://www.w3.org/2000/svg" xmlns:xlink="http://www.w3.org/1999/xlink" width="500" zoomAndPan="magnify" viewBox="0 0 375 374.999991" height="500" preserveAspectRatio="xMidYMid meet" version="1.0"><defs><g/><clipPath id="499090e963"><path d="M 51.199219 211.898438 L 176.195312 211.898438 L 176.195312 225.800781 L 51.199219 225.800781 Z M 51.199219 211.898438 " clip-rule="nonzero"/></clipPath><clipPath id="b7244f684d"><path d="M 192.464844 132.902344 L 317.457031 132.902344 L 317.457031 146.800781 L 192.464844 146.800781 Z M 192.464844 132.902344 " clip-rule="nonzero"/></clipPath></defs><g clip-path="url(#499090e963)"><path fill="#ffffff" d="M 51.199219 211.898438 L 176.1875 211.898438 L 176.1875 225.800781 L 51.199219 225.800781 Z M 51.199219 211.898438 " fill-opacity="1" fill-rule="nonzero"/></g><g clip-path="url(#b7244f684d)"><path fill="#ffffff" d="M 192.464844 132.902344 L 317.453125 132.902344 L 317.453125 146.800781 L 192.464844 146.800781 Z M 192.464844 132.902344 " fill-opacity="1" fill-rule="nonzero"/></g><g fill="#ffffff" fill-opacity="1"><g transform="translate(45.854812, 187.076251)"><g><path d="M 26.46875 1.125 C 21.738281 1.125 17.664062 0.347656 14.25 -1.203125 C 10.832031 -2.765625 8.191406 -4.984375 6.328125 -7.859375 C 4.472656 -10.742188 3.546875 -14.125 3.546875 -18 L 16.140625 -18 C 16.140625 -15.3125 17.066406 -13.210938 18.921875 -11.703125 C 20.785156 -10.191406 23.273438 -9.4375 26.390625 -9.4375 C 29.085938 -9.4375 31.210938 -9.960938 32.765625 -11.015625 C 34.328125 -12.066406 35.109375 -13.535156 35.109375 -15.421875 C 35.109375 -17.410156 34.164062 -19.019531 32.28125 -20.25 C 30.40625 -21.488281 27.472656 -22.539062 23.484375 -23.40625 C 16.867188 -24.800781 11.972656 -26.925781 8.796875 -29.78125 C 5.617188 -32.632812 4.03125 -36.347656 4.03125 -40.921875 C 4.03125 -46.085938 5.914062 -50.164062 9.6875 -53.15625 C 13.457031 -56.144531 18.597656 -57.640625 25.109375 -57.640625 C 29.566406 -57.640625 33.4375 -56.867188 36.71875 -55.328125 C 40.007812 -53.796875 42.554688 -51.644531 44.359375 -48.875 C 46.160156 -46.101562 47.0625 -42.804688 47.0625 -38.984375 L 34.703125 -38.984375 C 34.703125 -41.515625 33.867188 -43.503906 32.203125 -44.953125 C 30.535156 -46.410156 28.222656 -47.140625 25.265625 -47.140625 C 22.578125 -47.140625 20.453125 -46.613281 18.890625 -45.5625 C 17.328125 -44.507812 16.546875 -43.046875 16.546875 -41.171875 C 16.546875 -39.441406 17.40625 -37.984375 19.125 -36.796875 C 20.851562 -35.617188 23.867188 -34.519531 28.171875 -33.5 C 35.222656 -31.832031 40.304688 -29.597656 43.421875 -26.796875 C 46.546875 -23.992188 48.109375 -20.363281 48.109375 -15.90625 C 48.109375 -10.570312 46.179688 -6.398438 42.328125 -3.390625 C 38.484375 -0.378906 33.195312 1.125 26.46875 1.125 Z M 26.46875 1.125 "/></g></g></g><g fill="#ffffff" fill-opacity="1"><g transform="translate(114.30262, 187.076251)"><g><path d="M 33.578125 1.125 C 27.710938 1.125 22.503906 -0.125 17.953125 -2.625 C 13.410156 -5.125 9.859375 -8.578125 7.296875 -12.984375 C 4.742188 -17.398438 3.46875 -22.488281 3.46875 -28.25 C 3.46875 -34.007812 4.742188 -39.09375 7.296875 -43.5 C 9.859375 -47.914062 13.410156 -51.375 17.953125 -53.875 C 22.503906 -56.382812 27.710938 -57.640625 33.578125 -57.640625 C 39.492188 -57.640625 44.710938 -56.382812 49.234375 -53.875 C 53.753906 -51.375 57.304688 -47.914062 59.890625 -43.5 C 62.472656 -39.09375 63.765625 -34.007812 63.765625 -28.25 C 63.765625 -22.488281 62.472656 -17.398438 59.890625 -12.984375 C 57.304688 -8.578125 53.753906 -5.125 49.234375 -2.625 C 44.710938 -0.125 39.492188 1.125 33.578125 1.125 Z M 16.546875 -28.25 C 16.546875 -24.863281 17.269531 -21.878906 18.71875 -19.296875 C 20.175781 -16.710938 22.179688 -14.691406 24.734375 -13.234375 C 27.296875 -11.785156 30.242188 -11.0625 33.578125 -11.0625 C 36.972656 -11.0625 39.945312 -11.785156 42.5 -13.234375 C 45.050781 -14.691406 47.039062 -16.710938 48.46875 -19.296875 C 49.894531 -21.878906 50.609375 -24.863281 50.609375 -28.25 C 50.609375 -31.644531 49.894531 -34.628906 48.46875 -37.203125 C 47.039062 -39.785156 45.050781 -41.800781 42.5 -43.25 C 39.945312 -44.707031 36.972656 -45.4375 33.578125 -45.4375 C 30.242188 -45.4375 27.296875 -44.707031 24.734375 -43.25 C 22.179688 -41.800781 20.175781 -39.785156 18.71875 -37.203125 C 17.269531 -34.628906 16.546875 -31.644531 16.546875 -28.25 Z M 16.546875 -28.25 "/></g></g></g><g fill="#ffffff" fill-opacity="1"><g transform="translate(191.68048, 225.430998)"><g><path d="M 20.34375 0 L 20.34375 -44.46875 L 2.421875 -44.46875 L 2.421875 -56.5 L 51.09375 -56.5 L 51.09375 -44.46875 L 33.171875 -44.46875 L 33.171875 0 Z M 20.34375 0 "/></g></g></g><g fill="#ffffff" fill-opacity="1"><g transform="translate(261.904014, 225.430998)"><g><path d="M 33.578125 1.125 C 27.710938 1.125 22.503906 -0.125 17.953125 -2.625 C 13.410156 -5.125 9.859375 -8.578125 7.296875 -12.984375 C 4.742188 -17.398438 3.46875 -22.488281 3.46875 -28.25 C 3.46875 -34.007812 4.742188 -39.09375 7.296875 -43.5 C 9.859375 -47.914062 13.410156 -51.375 17.953125 -53.875 C 22.503906 -56.382812 27.710938 -57.640625 33.578125 -57.640625 C 39.492188 -57.640625 44.710938 -56.382812 49.234375 -53.875 C 53.753906 -51.375 57.304688 -47.914062 59.890625 -43.5 C 62.472656 -39.09375 63.765625 -34.007812 63.765625 -28.25 C 63.765625 -22.488281 62.472656 -17.398438 59.890625 -12.984375 C 57.304688 -8.578125 53.753906 -5.125 49.234375 -2.625 C 44.710938 -0.125 39.492188 1.125 33.578125 1.125 Z M 16.546875 -28.25 C 16.546875 -24.863281 17.269531 -21.878906 18.71875 -19.296875 C 20.175781 -16.710938 22.179688 -14.691406 24.734375 -13.234375 C 27.296875 -11.785156 30.242188 -11.0625 33.578125 -11.0625 C 36.972656 -11.0625 39.945312 -11.785156 42.5 -13.234375 C 45.050781 -14.691406 47.039062 -16.710938 48.46875 -19.296875 C 49.894531 -21.878906 50.609375 -24.863281 50.609375 -28.25 C 50.609375 -31.644531 49.894531 -34.628906 48.46875 -37.203125 C 47.039062 -39.785156 45.050781 -41.800781 42.5 -43.25 C 39.945312 -44.707031 36.972656 -45.4375 33.578125 -45.4375 C 30.242188 -45.4375 27.296875 -44.707031 24.734375 -43.25 C 22.179688 -41.800781 20.175781 -39.785156 18.71875 -37.203125 C 17.269531 -34.628906 16.546875 -31.644531 16.546875 -28.25 Z M 16.546875 -28.25 "/></g></g></g><g fill="#ffffff" fill-opacity="1"><g transform="translate(69.218093, 264.890065)"><g><path d="M 9.234375 -0.28125 L 9.609375 -0.28125 L 9.609375 0 L 3.328125 0 L 3.328125 -0.28125 L 3.703125 -0.28125 C 4.191406 -0.28125 4.617188 -0.457031 4.984375 -0.8125 C 5.347656 -1.164062 5.53125 -1.59375 5.53125 -2.09375 L 5.53125 -19.28125 L 2.46875 -19.109375 C 0.539062 -18.992188 -0.421875 -18.296875 -0.421875 -17.015625 C -0.421875 -16.503906 -0.253906 -16.066406 0.078125 -15.703125 C 0.410156 -15.335938 0.941406 -15.140625 1.671875 -15.109375 L 1.671875 -14.9375 C 1.398438 -14.875 1.128906 -14.84375 0.859375 -14.84375 C 0.015625 -14.84375 -0.613281 -15.175781 -1.03125 -15.84375 C -1.28125 -16.226562 -1.40625 -16.648438 -1.40625 -17.109375 C -1.40625 -18.734375 -0.171875 -19.675781 2.296875 -19.9375 C 2.316406 -19.9375 3.265625 -20 5.140625 -20.125 C 7.023438 -20.25 8.515625 -20.414062 9.609375 -20.625 L 9.65625 -20.34375 C 8.832031 -20.207031 8.25 -19.929688 7.90625 -19.515625 C 7.5625 -19.097656 7.390625 -18.515625 7.390625 -17.765625 L 7.390625 -2.09375 C 7.410156 -1.59375 7.597656 -1.164062 7.953125 -0.8125 C 8.304688 -0.457031 8.734375 -0.28125 9.234375 -0.28125 Z M 9.234375 -0.28125 "/></g></g></g><g fill="#ffffff" fill-opacity="1"><g transform="translate(80.477558, 264.890065)"><g><path d="M 30.234375 4.359375 C 28.703125 4.835938 27.328125 4.921875 26.109375 4.609375 C 24.828125 4.265625 23.71875 3.734375 22.78125 3.015625 C 21.882812 2.285156 20.96875 1.414062 20.03125 0.40625 L 4.9375 -16.328125 L 4.9375 -2 C 4.945312 -1.332031 5.238281 -0.835938 5.8125 -0.515625 C 6.082031 -0.359375 6.367188 -0.28125 6.671875 -0.28125 L 7.21875 -0.28125 L 7.21875 0 L 1.328125 0 L 1.328125 -0.28125 L 1.859375 -0.28125 C 2.335938 -0.28125 2.75 -0.445312 3.09375 -0.78125 C 3.4375 -1.125 3.609375 -1.539062 3.609375 -2.03125 L 3.609375 -17.765625 C 3.515625 -17.898438 3.320312 -18.148438 3.03125 -18.515625 C 2.75 -18.890625 2.507812 -19.191406 2.3125 -19.421875 C 2.125 -19.648438 1.867188 -19.953125 1.546875 -20.328125 C 1.222656 -20.703125 0.921875 -21.003906 0.640625 -21.234375 C 0.367188 -21.460938 0.0507812 -21.726562 -0.3125 -22.03125 C -0.882812 -22.476562 -1.492188 -22.796875 -2.140625 -22.984375 C -2.796875 -23.171875 -3.347656 -23.265625 -3.796875 -23.265625 C -4.242188 -23.265625 -4.722656 -23.191406 -5.234375 -23.046875 L -5.359375 -23.328125 C -4.441406 -23.710938 -3.554688 -23.90625 -2.703125 -23.90625 C -1.859375 -23.90625 -1.128906 -23.800781 -0.515625 -23.59375 C 0.0976562 -23.394531 0.757812 -23.035156 1.46875 -22.515625 C 2.175781 -22.003906 2.753906 -21.53125 3.203125 -21.09375 C 3.648438 -20.65625 4.1875 -20.082031 4.8125 -19.375 L 19.265625 -3.328125 L 19.265625 -18.03125 C 19.242188 -18.519531 19.0625 -18.929688 18.71875 -19.265625 C 18.375 -19.597656 17.960938 -19.765625 17.484375 -19.765625 L 16.9375 -19.765625 L 16.9375 -20.0625 L 22.84375 -20.0625 L 22.84375 -19.765625 L 22.328125 -19.765625 C 21.847656 -19.765625 21.4375 -19.597656 21.09375 -19.265625 C 20.75 -18.929688 20.566406 -18.523438 20.546875 -18.046875 L 20.546875 -1.859375 C 20.734375 -1.648438 21.003906 -1.332031 21.359375 -0.90625 C 21.710938 -0.488281 21.960938 -0.191406 22.109375 -0.015625 C 22.253906 0.148438 22.46875 0.394531 22.75 0.71875 C 23.039062 1.039062 23.285156 1.289062 23.484375 1.46875 C 23.679688 1.65625 23.925781 1.882812 24.21875 2.15625 C 24.519531 2.4375 24.800781 2.65625 25.0625 2.8125 C 25.320312 2.976562 25.613281 3.164062 25.9375 3.375 C 26.394531 3.644531 26.914062 3.847656 27.5 3.984375 C 28.082031 4.117188 28.554688 4.1875 28.921875 4.1875 C 29.296875 4.1875 29.695312 4.144531 30.125 4.0625 Z M 30.234375 4.359375 "/></g></g></g><g fill="#ffffff" fill-opacity="1"><g transform="translate(104.572247, 264.890065)"><g><path d="M 9.234375 -0.28125 L 9.609375 -0.28125 L 9.609375 0 L 3.328125 0 L 3.328125 -0.28125 L 3.703125 -0.28125 C 4.191406 -0.28125 4.617188 -0.457031 4.984375 -0.8125 C 5.347656 -1.164062 5.53125 -1.59375 5.53125 -2.09375 L 5.53125 -19.28125 L 2.46875 -19.109375 C 0.539062 -18.992188 -0.421875 -18.296875 -0.421875 -17.015625 C -0.421875 -16.503906 -0.253906 -16.066406 0.078125 -15.703125 C 0.410156 -15.335938 0.941406 -15.140625 1.671875 -15.109375 L 1.671875 -14.9375 C 1.398438 -14.875 1.128906 -14.84375 0.859375 -14.84375 C 0.015625 -14.84375 -0.613281 -15.175781 -1.03125 -15.84375 C -1.28125 -16.226562 -1.40625 -16.648438 -1.40625 -17.109375 C -1.40625 -18.734375 -0.171875 -19.675781 2.296875 -19.9375 C 2.316406 -19.9375 3.265625 -20 5.140625 -20.125 C 7.023438 -20.25 8.515625 -20.414062 9.609375 -20.625 L 9.65625 -20.34375 C 8.832031 -20.207031 8.25 -19.929688 7.90625 -19.515625 C 7.5625 -19.097656 7.390625 -18.515625 7.390625 -17.765625 L 7.390625 -2.09375 C 7.410156 -1.59375 7.597656 -1.164062 7.953125 -0.8125 C 8.304688 -0.457031 8.734375 -0.28125 9.234375 -0.28125 Z M 9.234375 -0.28125 "/></g></g></g><g fill="#ffffff" fill-opacity="1"><g transform="translate(115.831712, 264.890065)"><g/></g></g><g fill="#ffffff" fill-opacity="1"><g transform="translate(122.99423, 264.890065)"><g><path d="M 7.15625 0.546875 C 11.226562 1.960938 14.28125 2.921875 16.3125 3.421875 C 18.351562 3.929688 20.101562 4.1875 21.5625 4.1875 C 23.019531 4.1875 24.628906 3.851562 26.390625 3.1875 L 26.53125 3.40625 C 24.207031 5.007812 21.859375 5.8125 19.484375 5.8125 C 17.054688 5.8125 14.296875 5.054688 11.203125 3.546875 C 8.816406 2.367188 7.335938 1.65625 6.765625 1.40625 C 4.722656 0.488281 3.039062 0.0195312 1.71875 0 L 1.71875 -0.28125 L 2.09375 -0.28125 C 2.59375 -0.28125 3.015625 -0.453125 3.359375 -0.796875 C 3.710938 -1.140625 3.898438 -1.570312 3.921875 -2.09375 L 3.921875 -17.96875 C 3.898438 -18.46875 3.710938 -18.890625 3.359375 -19.234375 C 3.015625 -19.585938 2.59375 -19.765625 2.09375 -19.765625 L 1.71875 -19.765625 L 1.71875 -20.0625 L 8 -20.0625 L 8 -19.765625 L 7.625 -19.765625 C 7.125 -19.765625 6.691406 -19.585938 6.328125 -19.234375 C 5.960938 -18.890625 5.78125 -18.46875 5.78125 -17.96875 L 5.78125 -1.4375 C 5.78125 -1.09375 5.800781 -0.828125 5.84375 -0.640625 C 5.882812 -0.460938 6.007812 -0.257812 6.21875 -0.03125 C 6.425781 0.195312 6.738281 0.390625 7.15625 0.546875 Z M 7.15625 0.546875 "/></g></g></g><g fill="#ffffff" fill-opacity="1"><g transform="translate(134.482905, 264.890065)"><g><path d="M 7.9375 -13.375 C 7.863281 -13.625 7.828125 -13.835938 7.828125 -14.015625 C 7.828125 -14.203125 7.832031 -14.410156 7.84375 -14.640625 C 7.863281 -14.867188 7.90625 -15.179688 7.96875 -15.578125 C 8.039062 -15.984375 8.171875 -16.378906 8.359375 -16.765625 C 8.554688 -17.160156 8.78125 -17.539062 9.03125 -17.90625 C 9.28125 -18.269531 9.597656 -18.601562 9.984375 -18.90625 C 10.378906 -19.21875 10.816406 -19.488281 11.296875 -19.71875 C 12.304688 -20.207031 13.535156 -20.453125 14.984375 -20.453125 C 17.910156 -20.453125 20.296875 -19.484375 22.140625 -17.546875 C 23.984375 -15.609375 24.90625 -13.128906 24.90625 -10.109375 C 24.90625 -7.097656 23.816406 -4.59375 21.640625 -2.59375 C 19.460938 -0.59375 16.703125 0.40625 13.359375 0.40625 C 10.015625 0.40625 7.238281 -0.585938 5.03125 -2.578125 C 2.820312 -4.566406 1.71875 -7.144531 1.71875 -10.3125 C 1.71875 -12.351562 2.191406 -14.164062 3.140625 -15.75 C 4.097656 -17.34375 5.46875 -18.585938 7.25 -19.484375 L 7.421875 -19.234375 C 6.179688 -18.410156 5.285156 -17.222656 4.734375 -15.671875 C 4.191406 -14.128906 3.921875 -12.488281 3.921875 -10.75 C 3.921875 -7.519531 4.800781 -4.992188 6.5625 -3.171875 C 8.320312 -1.359375 10.578125 -0.453125 13.328125 -0.453125 C 16.078125 -0.453125 18.328125 -1.363281 20.078125 -3.1875 C 21.828125 -5.019531 22.703125 -7.425781 22.703125 -10.40625 C 22.703125 -12.976562 22.007812 -15.148438 20.625 -16.921875 C 19.238281 -18.703125 17.285156 -19.59375 14.765625 -19.59375 C 13.628906 -19.59375 12.601562 -19.394531 11.6875 -19 C 10.03125 -18.289062 8.929688 -17.125 8.390625 -15.5 C 8.242188 -15.019531 8.171875 -14.609375 8.171875 -14.265625 C 8.171875 -13.921875 8.1875 -13.644531 8.21875 -13.4375 Z M 7.9375 -13.375 "/></g></g></g><g fill="#ffffff" fill-opacity="1"><g transform="translate(161.098813, 264.890065)"><g><path d="M 27.765625 4.984375 C 25.335938 4.984375 23.351562 4.210938 21.8125 2.671875 C 20.664062 1.523438 19.910156 0.0820312 19.546875 -1.65625 C 17.734375 -0.28125 15.503906 0.40625 12.859375 0.40625 C 10.785156 0.40625 8.890625 -0.046875 7.171875 -0.953125 C 5.460938 -1.867188 4.125 -3.117188 3.15625 -4.703125 C 2.195312 -6.285156 1.71875 -8.066406 1.71875 -10.046875 C 1.71875 -12.035156 2.195312 -13.828125 3.15625 -15.421875 C 4.125 -17.023438 5.457031 -18.265625 7.15625 -19.140625 C 8.863281 -20.015625 10.765625 -20.453125 12.859375 -20.453125 C 15.503906 -20.453125 17.828125 -19.804688 19.828125 -18.515625 L 20.40625 -14.46875 L 20.140625 -14.46875 C 19.566406 -16.6875 18.269531 -18.195312 16.25 -19 C 15.257812 -19.394531 14.128906 -19.59375 12.859375 -19.59375 C 10.285156 -19.59375 8.144531 -18.695312 6.4375 -16.90625 C 4.726562 -15.113281 3.875 -12.835938 3.875 -10.078125 C 3.875 -7.316406 4.734375 -5.023438 6.453125 -3.203125 C 8.171875 -1.390625 10.304688 -0.472656 12.859375 -0.453125 C 14.109375 -0.453125 15.296875 -0.671875 16.421875 -1.109375 C 17.546875 -1.554688 18.507812 -2.171875 19.3125 -2.953125 L 19.3125 -8.03125 C 19.3125 -8.445312 19.1875 -8.765625 18.9375 -8.984375 C 18.6875 -9.203125 18.332031 -9.3125 17.875 -9.3125 L 17.421875 -9.3125 L 17.421875 -9.59375 L 23.046875 -9.59375 L 23.046875 -9.3125 L 22.609375 -9.3125 C 22.128906 -9.3125 21.765625 -9.203125 21.515625 -8.984375 C 21.265625 -8.765625 21.148438 -8.445312 21.171875 -8.03125 L 21.171875 -3.609375 C 21.285156 -0.585938 22.269531 1.566406 24.125 2.859375 C 25.425781 3.773438 27.109375 4.234375 29.171875 4.234375 C 30.035156 4.234375 30.972656 4.148438 31.984375 3.984375 L 32.015625 4.265625 C 30.484375 4.742188 29.066406 4.984375 27.765625 4.984375 Z M 27.765625 4.984375 "/></g></g></g><g fill="#ffffff" fill-opacity="1"><g transform="translate(185.336764, 264.890065)"><g><path d="M 7.9375 -13.375 C 7.863281 -13.625 7.828125 -13.835938 7.828125 -14.015625 C 7.828125 -14.203125 7.832031 -14.410156 7.84375 -14.640625 C 7.863281 -14.867188 7.90625 -15.179688 7.96875 -15.578125 C 8.039062 -15.984375 8.171875 -16.378906 8.359375 -16.765625 C 8.554688 -17.160156 8.78125 -17.539062 9.03125 -17.90625 C 9.28125 -18.269531 9.597656 -18.601562 9.984375 -18.90625 C 10.378906 -19.21875 10.816406 -19.488281 11.296875 -19.71875 C 12.304688 -20.207031 13.535156 -20.453125 14.984375 -20.453125 C 17.910156 -20.453125 20.296875 -19.484375 22.140625 -17.546875 C 23.984375 -15.609375 24.90625 -13.128906 24.90625 -10.109375 C 24.90625 -7.097656 23.816406 -4.59375 21.640625 -2.59375 C 19.460938 -0.59375 16.703125 0.40625 13.359375 0.40625 C 10.015625 0.40625 7.238281 -0.585938 5.03125 -2.578125 C 2.820312 -4.566406 1.71875 -7.144531 1.71875 -10.3125 C 1.71875 -12.351562 2.191406 -14.164062 3.140625 -15.75 C 4.097656 -17.34375 5.46875 -18.585938 7.25 -19.484375 L 7.421875 -19.234375 C 6.179688 -18.410156 5.285156 -17.222656 4.734375 -15.671875 C 4.191406 -14.128906 3.921875 -12.488281 3.921875 -10.75 C 3.921875 -7.519531 4.800781 -4.992188 6.5625 -3.171875 C 8.320312 -1.359375 10.578125 -0.453125 13.328125 -0.453125 C 16.078125 -0.453125 18.328125 -1.363281 20.078125 -3.1875 C 21.828125 -5.019531 22.703125 -7.425781 22.703125 -10.40625 C 22.703125 -12.976562 22.007812 -15.148438 20.625 -16.921875 C 19.238281 -18.703125 17.285156 -19.59375 14.765625 -19.59375 C 13.628906 -19.59375 12.601562 -19.394531 11.6875 -19 C 10.03125 -18.289062 8.929688 -17.125 8.390625 -15.5 C 8.242188 -15.019531 8.171875 -14.609375 8.171875 -14.265625 C 8.171875 -13.921875 8.1875 -13.644531 8.21875 -13.4375 Z M 7.9375 -13.375 "/></g></g></g><g fill="#ffffff" fill-opacity="1"><g transform="translate(211.952671, 264.890065)"><g/></g></g><g fill="#ffffff" fill-opacity="1"><g transform="translate(219.115189, 264.890065)"><g><path d="M 3.40625 -7.625 C 2.414062 -6.320312 1.921875 -4.914062 1.921875 -3.40625 C 1.921875 -1.613281 2.675781 -0.21875 4.1875 0.78125 C 5.0625 1.363281 6.054688 1.65625 7.171875 1.65625 C 8.296875 1.65625 9.269531 1.4375 10.09375 1 C 11.632812 0.195312 12.5 -1.144531 12.6875 -3.03125 C 12.707031 -3.164062 12.71875 -3.300781 12.71875 -3.4375 C 12.71875 -4.144531 12.519531 -4.910156 12.125 -5.734375 C 11.738281 -6.554688 11.109375 -7.3125 10.234375 -8 L 5.078125 -12.0625 C 3.941406 -12.9375 3.375 -14.070312 3.375 -15.46875 C 3.375 -16.863281 3.820312 -18.039062 4.71875 -19 C 5.625 -19.96875 6.84375 -20.453125 8.375 -20.453125 C 9.132812 -20.453125 9.960938 -20.359375 10.859375 -20.171875 L 12 -20.171875 L 12.0625 -16.65625 L 11.78125 -16.65625 C 11.757812 -17.570312 11.425781 -18.289062 10.78125 -18.8125 C 10.144531 -19.332031 9.34375 -19.59375 8.375 -19.59375 C 7.414062 -19.59375 6.609375 -19.273438 5.953125 -18.640625 C 5.304688 -18.003906 4.984375 -17.179688 4.984375 -16.171875 C 4.984375 -15.171875 5.40625 -14.335938 6.25 -13.671875 L 11.546875 -9.484375 C 13.648438 -7.816406 14.703125 -5.8125 14.703125 -3.46875 C 14.703125 -1.707031 14.003906 -0.195312 12.609375 1.0625 C 11.398438 2.144531 9.796875 2.6875 7.796875 2.6875 C 6.566406 2.6875 5.476562 2.457031 4.53125 2 C 2.726562 1.164062 1.648438 -0.265625 1.296875 -2.296875 C 1.234375 -2.597656 1.203125 -2.984375 1.203125 -3.453125 C 1.203125 -3.921875 1.332031 -4.5625 1.59375 -5.375 C 1.863281 -6.1875 2.382812 -7.003906 3.15625 -7.828125 Z M 3.40625 -7.625 "/></g></g></g><g fill="#ffffff" fill-opacity="1"><g transform="translate(234.844073, 264.890065)"><g><path d="M 7.9375 -13.375 C 7.863281 -13.625 7.828125 -13.835938 7.828125 -14.015625 C 7.828125 -14.203125 7.832031 -14.410156 7.84375 -14.640625 C 7.863281 -14.867188 7.90625 -15.179688 7.96875 -15.578125 C 8.039062 -15.984375 8.171875 -16.378906 8.359375 -16.765625 C 8.554688 -17.160156 8.78125 -17.539062 9.03125 -17.90625 C 9.28125 -18.269531 9.597656 -18.601562 9.984375 -18.90625 C 10.378906 -19.21875 10.816406 -19.488281 11.296875 -19.71875 C 12.304688 -20.207031 13.535156 -20.453125 14.984375 -20.453125 C 17.910156 -20.453125 20.296875 -19.484375 22.140625 -17.546875 C 23.984375 -15.609375 24.90625 -13.128906 24.90625 -10.109375 C 24.90625 -7.097656 23.816406 -4.59375 21.640625 -2.59375 C 19.460938 -0.59375 16.703125 0.40625 13.359375 0.40625 C 10.015625 0.40625 7.238281 -0.585938 5.03125 -2.578125 C 2.820312 -4.566406 1.71875 -7.144531 1.71875 -10.3125 C 1.71875 -12.351562 2.191406 -14.164062 3.140625 -15.75 C 4.097656 -17.34375 5.46875 -18.585938 7.25 -19.484375 L 7.421875 -19.234375 C 6.179688 -18.410156 5.285156 -17.222656 4.734375 -15.671875 C 4.191406 -14.128906 3.921875 -12.488281 3.921875 -10.75 C 3.921875 -7.519531 4.800781 -4.992188 6.5625 -3.171875 C 8.320312 -1.359375 10.578125 -0.453125 13.328125 -0.453125 C 16.078125 -0.453125 18.328125 -1.363281 20.078125 -3.1875 C 21.828125 -5.019531 22.703125 -7.425781 22.703125 -10.40625 C 22.703125 -12.976562 22.007812 -15.148438 20.625 -16.921875 C 19.238281 -18.703125 17.285156 -19.59375 14.765625 -19.59375 C 13.628906 -19.59375 12.601562 -19.394531 11.6875 -19 C 10.03125 -18.289062 8.929688 -17.125 8.390625 -15.5 C 8.242188 -15.019531 8.171875 -14.609375 8.171875 -14.265625 C 8.171875 -13.921875 8.1875 -13.644531 8.21875 -13.4375 Z M 7.9375 -13.375 "/></g></g></g><g fill="#ffffff" fill-opacity="1"><g transform="translate(261.45998, 264.890065)"><g><path d="M -1.65625 -14.359375 C -2.25 -15.066406 -2.546875 -15.769531 -2.546875 -16.46875 C -2.546875 -17.164062 -2.382812 -17.765625 -2.0625 -18.265625 C -1.738281 -18.773438 -1.210938 -19.207031 -0.484375 -19.5625 C 0.242188 -19.914062 1.066406 -20.09375 1.984375 -20.09375 L 13.734375 -20.09375 C 14.328125 -20.09375 14.976562 -20.148438 15.6875 -20.265625 C 16.40625 -20.378906 16.910156 -20.492188 17.203125 -20.609375 L 17.203125 -17 L 16.90625 -17.015625 L 16.90625 -17.515625 C 16.90625 -17.972656 16.742188 -18.367188 16.421875 -18.703125 C 16.097656 -19.035156 15.71875 -19.210938 15.28125 -19.234375 L 9.828125 -19.234375 L 9.828125 -2.0625 C 9.847656 -1.375 10.15625 -0.859375 10.75 -0.515625 C 11.03125 -0.359375 11.335938 -0.28125 11.671875 -0.28125 L 12.03125 -0.28125 L 12.03125 0 L 5.765625 0 L 5.765625 -0.28125 L 6.140625 -0.28125 C 6.628906 -0.28125 7.050781 -0.453125 7.40625 -0.796875 C 7.757812 -1.140625 7.945312 -1.550781 7.96875 -2.03125 L 7.96875 -19.234375 L 1.984375 -19.234375 C 0.453125 -19.234375 -0.65625 -18.742188 -1.34375 -17.765625 C -1.707031 -17.265625 -1.890625 -16.742188 -1.890625 -16.203125 C -1.890625 -15.660156 -1.738281 -15.09375 -1.4375 -14.5 Z M -1.65625 -14.359375 "/></g></g></g><g fill="#ffffff" fill-opacity="1"><g transform="translate(279.165714, 264.890065)"><g><path d="M 7.9375 -13.375 C 7.863281 -13.625 7.828125 -13.835938 7.828125 -14.015625 C 7.828125 -14.203125 7.832031 -14.410156 7.84375 -14.640625 C 7.863281 -14.867188 7.90625 -15.179688 7.96875 -15.578125 C 8.039062 -15.984375 8.171875 -16.378906 8.359375 -16.765625 C 8.554688 -17.160156 8.78125 -17.539062 9.03125 -17.90625 C 9.28125 -18.269531 9.597656 -18.601562 9.984375 -18.90625 C 10.378906 -19.21875 10.816406 -19.488281 11.296875 -19.71875 C 12.304688 -20.207031 13.535156 -20.453125 14.984375 -20.453125 C 17.910156 -20.453125 20.296875 -19.484375 22.140625 -17.546875 C 23.984375 -15.609375 24.90625 -13.128906 24.90625 -10.109375 C 24.90625 -7.097656 23.816406 -4.59375 21.640625 -2.59375 C 19.460938 -0.59375 16.703125 0.40625 13.359375 0.40625 C 10.015625 0.40625 7.238281 -0.585938 5.03125 -2.578125 C 2.820312 -4.566406 1.71875 -7.144531 1.71875 -10.3125 C 1.71875 -12.351562 2.191406 -14.164062 3.140625 -15.75 C 4.097656 -17.34375 5.46875 -18.585938 7.25 -19.484375 L 7.421875 -19.234375 C 6.179688 -18.410156 5.285156 -17.222656 4.734375 -15.671875 C 4.191406 -14.128906 3.921875 -12.488281 3.921875 -10.75 C 3.921875 -7.519531 4.800781 -4.992188 6.5625 -3.171875 C 8.320312 -1.359375 10.578125 -0.453125 13.328125 -0.453125 C 16.078125 -0.453125 18.328125 -1.363281 20.078125 -3.1875 C 21.828125 -5.019531 22.703125 -7.425781 22.703125 -10.40625 C 22.703125 -12.976562 22.007812 -15.148438 20.625 -16.921875 C 19.238281 -18.703125 17.285156 -19.59375 14.765625 -19.59375 C 13.628906 -19.59375 12.601562 -19.394531 11.6875 -19 C 10.03125 -18.289062 8.929688 -17.125 8.390625 -15.5 C 8.242188 -15.019531 8.171875 -14.609375 8.171875 -14.265625 C 8.171875 -13.921875 8.1875 -13.644531 8.21875 -13.4375 Z M 7.9375 -13.375 "/></g></g></g></svg>